<svg width="165" height="42" viewBox="0 0 165 42" fill="none" xmlns="http://www.w3.org/2000/svg">
<path d="M21.9397 21.0482L30.3546 12.6617H41.236C37.6814 5.58783 30.3546 0.701782 21.9397 0.701782C13.5247 0.701782 6.19794 5.58783 2.64335 12.6617H13.5247L21.9397 21.0482ZM0.394531 22.3609C0.394531 30.8203 5.25488 38.1858 12.2915 41.7592L22.0122 31.9871L2.71589 12.6617C1.1925 15.5787 0.394531 18.8604 0.394531 22.3609ZM41.236 12.6617L21.9397 32.06L31.6604 41.7592C38.697 38.1858 43.5574 30.8203 43.5574 22.3609C43.5574 18.8604 42.7594 15.5787 41.236 12.6617ZM65.1025 25.7155L60.4598 12.6617H55.4544L62.7812 32.133H67.2788L74.6056 12.6617H69.7453L65.1025 25.7155ZM77.7975 32.133H92.1609V28.0491H82.2952V24.2569H90.4199V20.3189H82.2952V16.8185H92.1609V12.6617H77.7975V32.133ZM112.255 19.225C112.255 15.5787 109.354 12.6617 105.726 12.6617H96.8037V32.133H101.301V25.9342H103.333L107.54 32.133H112.836L108.048 25.3508C110.514 24.4028 112.255 21.9962 112.255 19.225ZM105.001 21.9962H101.301V16.8185H105.001C106.452 16.8185 107.613 17.9853 107.613 19.4438C107.613 20.8294 106.452 21.9962 105.001 21.9962ZM114.867 16.7455H120.815V32.06H125.313V16.7455H131.261V12.5887H114.939V16.7455H114.867ZM156.796 12.6617L152.154 25.7155L147.511 12.6617H142.506L149.832 32.133H154.33L161.657 12.6617H156.796ZM134.889 32.133H139.386V12.6617H134.889V32.133ZM159.19 29.143H161.657V29.5805H160.714V32.133H160.206V29.5805H159.263V29.143H159.19ZM163.253 32.06L162.455 30.0181V32.06H161.947V29.0701H162.527L163.398 31.3308L164.268 29.0701H164.849V32.06H164.341V30.0181L163.543 32.06H163.253Z" fill="white"/>
</svg>
